<?xml version="1.0" standalone="no"?> <!DOCTYPE svg PUBLIC "-//W3C//DTD SVG 1.0//EN" "http://www.w3.org/TR/2001/REC-SVG-20010904/DTD/svg10.dtd" > <svg xmlns="http://www.w3.org/2000/svg" width="100%" height="100%">
<defs >
<font id="PetitaMedium" horiz-adv-x="422" ><font-face
    font-family="PetitaMedium"
    units-per-em="1000"
    panose-1="2 0 6 4 6 0 0 2 0 3"
    ascent="931"
    descent="-200"
    alphabetic="0" />
<missing-glyph horiz-adv-x="1000" />
<glyph unicode=" " glyph-name="space" horiz-adv-x="292" />
<glyph unicode="!" glyph-name="exclam" horiz-adv-x="186" d="M138 695H47L65 179H120L138 695ZM138 -13V110H48V-13H138Z" />
<glyph unicode="&quot;" glyph-name="quotedbl" horiz-adv-x="292" d="M260 640L223 697H169V570L182 437H247L257 540L260 640ZM123 640L86 697H32V570L45 437H110L120 540L123 640Z" />
<glyph unicode="#" glyph-name="numbersign" horiz-adv-x="693" d="M612 198V269H484L518 435H612V506H533L575 711H502L460 505H298L340 711H267L225 505H81V434H210L176 268H81V197H161L118 -13H191L234 198H396L353 -13H426L469 198H612ZM445 435L411 268H249L283
435H445Z" />
<glyph unicode="$" glyph-name="dollar" horiz-adv-x="547" d="M503 165Q503 248 451 291Q401 335 282 371Q239 385 209 398T158 425Q124 449 124 494Q124 539 165 570Q209 603 269 603Q301 603 327 598T376 581T421 557T473 519V606Q454 621 434 632T389 654Q354
668 310 672L311 754H238L237 672Q166 663 113 620Q47 564 47 488Q47 409 97 368Q145 330 246 301Q341 272 385 243Q427 214 427 164Q427 117 384 83Q341 48 277 48Q234 48 176 71Q147 82 117 100T42 151V66Q62 46 87 31T141 3Q186 -17 238 -21V-130H311V-21Q381
-12 435 31Q503 87 503 165Z" />
<glyph unicode="%" glyph-name="percent" horiz-adv-x="733" d="M371 531Q371 602 320 653T197 704Q128 704 75 653Q24 603 24 531Q24 460 74 408Q127 357 197 357Q268 357 320 409Q371 460 371 531ZM689 700H606L37 -24H119L689 700ZM710 147Q710 217 658 269Q607
320 535 320Q466 320 413 269Q362 219 362 147Q362 78 414 26Q465 -25 535 -25Q606 -25 659 26Q685 51 697 81T710 147ZM303 529Q303 488 271 456Q241 425 198 425Q155 425 123 457Q92 488 92 532Q92 574 123 605T199 636Q242 636 272 604Q303 574 303 529ZM642
145Q642 103 611 73Q579 43 536 43Q493 43 461 75Q430 106 430 148Q430 190 462 221Q495 252 537 252Q581 252 611 220Q642 189 642 145Z" />
<glyph unicode="&amp;" glyph-name="ampersand" horiz-adv-x="646" d="M640 -13L486 149Q497 165 508 182T529 220Q543 249 556 279T583 353H501Q489 318 478 292T456 246Q451 236 445 226T432 205L300 344Q349 370 386 407Q436 459 436 529Q436 600 385 642Q360
662 332 672T271 682Q204 682 152 635Q100 589 100 523Q100 477 123 436Q133 419 143 404T168 374L177 365Q113 337 69 288Q16 229 16 154Q16 84 64 32Q112 -22 206 -22Q287 -22 352 15Q399 43 440 90L539 -13H640ZM362 524Q362 484 328 450Q303 423 248 399Q247
400 244 403T239 408Q226 421 215 434T195 463Q176 495 176 524Q176 563 204 584Q237 608 272 608Q308 608 336 583Q362 562 362 524ZM388 144Q369 122 351 106T313 78Q269 52 215 52Q162 52 129 80Q98 108 98 163Q98 215 136 250T230 310L388 144Z" />
<glyph unicode="&apos;" glyph-name="quotesingle" horiz-adv-x="233" d="M162 640L125 697H71V570L84 437H149L159 540L162 640Z" />
<glyph unicode="(" glyph-name="parenleft" horiz-adv-x="350" d="M338 -233Q281 -184 245 -136T180 -29Q123 86 123 231Q123 373 181 491Q210 550 246 598T338 695H249Q174 626 111 509Q47 391 47 231Q47 71 112 -48Q144 -107 177 -152T249 -233H338Z" />
<glyph unicode=")" glyph-name="parenright" horiz-adv-x="350" d="M303 231Q303 392 239 510Q207 569 173 614T99 695H10Q67 646 103 598T169 491Q227 376 227 231Q227 86 169 -29Q155 -58 139 -84T104 -136T62 -185T10 -233H99Q138 -198 172 -152T239 -47Q303
71 303 231Z" />
<glyph unicode="*" glyph-name="asterisk" horiz-adv-x="492" d="M452 415Q427 425 410 432T377 448T343 465T299 488Q325 501 343 510T377 528T410 543T452 561L413 631Q397 618 386 609T364 593T344 580T322 566Q303 555 272 535Q273 564 274 584T276 622T280
658T285 704H207Q210 678 212 660T215 623T217 585T220 535Q189 555 170 566Q158 573 149 579T129 593T107 609T79 631L40 561Q64 551 81 544T114 528T148 511T193 488Q167 474 149 465T115 448T82 433T40 415L79 345Q95 358 106 367T128 383T148 396T170 410Q189
421 220 441Q218 412 218 392T216 354T212 318T207 272H285Q282 298 280 316T277 353T275 391T272 441Q303 421 322 410Q334 402 343 396T363 383T385 367T413 345L452 415Z" />
<glyph unicode="+" glyph-name="plus" horiz-adv-x="693" d="M621 319V388H381V625H312V387H72V318H312V78H381V319H621Z" />
<glyph unicode="," glyph-name="comma" horiz-adv-x="186" d="M140 17V110H50V-13H71Q69 -36 65 -49Q64 -52 60 -56T53 -63Q51 -66 48 -69T40 -78V-142Q61 -127 69 -121T84 -109Q95 -99 105 -89T121 -64Q140 -26 140 17Z" />
<glyph unicode="-" glyph-name="hyphen" horiz-adv-x="329" d="M295 240V302H33V240H295Z" />
<glyph unicode="." glyph-name="period" horiz-adv-x="186" d="M137 -13V111H48V-13H137Z" />
<glyph unicode="/" glyph-name="slash" horiz-adv-x="295" d="M296 704H223L-5 -22H68L296 704Z" />
<glyph unicode="0" glyph-name="zero" horiz-adv-x="525" d="M494 338V344Q494 498 433 600Q371 704 263 704Q155 704 93 600Q32 500 32 344V338Q32 182 93 82Q153 -22 262 -22Q370 -22 433 82Q494 182 494 338ZM417 337Q417 214 371 130Q349 88 322 70T263 51Q197
51 153 130Q109 213 109 337V345Q109 469 154 552Q177 594 203 612T262 631Q294 631 322 612T372 552T405 460T417 345V337Z" />
<glyph unicode="1" glyph-name="one" horiz-adv-x="352" d="M295 -13V695H218V635L27 445L80 391L218 530V-13H295Z" />
<glyph unicode="2" glyph-name="two" horiz-adv-x="525" d="M491 -13V60H189Q223 99 255 138Q274 163 292 189T329 241Q343 261 359 289T393 353Q426 425 426 493Q426 582 365 643Q302 704 213 704Q153 704 110 680Q90 669 73 659T41 634V539Q73 570 92 585T130
611Q165 631 209 631Q270 631 309 591Q349 552 349 492Q349 464 344 437T325 382Q313 354 298 326T263 269Q238 232 213 200T163 141Q139 115 112 85T49 19V-13H491Z" />
<glyph unicode="3" glyph-name="three" horiz-adv-x="525" d="M455 192Q455 256 417 305Q388 341 339 362Q390 383 416 420Q447 466 447 517Q447 600 386 652Q328 704 236 704Q176 704 133 685Q114 677 100 670T75 653V575Q95 589 109 597T143 614Q179 631 229
631Q291 631 332 596Q371 561 371 514Q371 464 328 430Q282 395 221 395H203V322H225Q263 322 291 312T340 283Q379 247 379 184Q379 126 338 88Q296 51 231 51Q183 51 145 62Q126 67 110 74T69 92V18Q85 9 102 3T141 -9Q164 -15 187 -18T236 -22Q332 -22 394 37Q455
95 455 192Z" />
<glyph unicode="4" glyph-name="four" horiz-adv-x="525" d="M500 251V317H406V704H367L18 285V250H330V-13H406V251H500ZM330 317H128L330 560V317Z" />
<glyph unicode="5" glyph-name="five" horiz-adv-x="525" d="M459 212Q459 314 394 375Q361 406 319 422T223 435L178 433V623H420V695H105V347Q127 354 139 357T162 362T184 364T207 365Q290 365 337 324Q384 282 384 210Q384 141 339 96T227 51Q180 51 134 71Q111
82 93 92T49 119V29Q65 20 83 12T124 -5Q172 -22 230 -22Q330 -22 395 44Q459 109 459 212Z" />
<glyph unicode="6" glyph-name="six" horiz-adv-x="525" d="M481 176Q481 268 424 325Q365 382 275 382Q237 382 204 369Q172 358 147 342Q163 405 200 458Q236 511 284 558T400 653L354 708Q291 663 240 613T145 503Q55 381 55 233Q55 111 119 44Q182 -22 275
-22Q361 -22 421 35Q481 90 481 176ZM405 174Q405 120 367 86Q329 51 272 51Q214 51 171 97Q129 142 129 226Q129 233 129 239Q129 245 130 250Q146 266 178 285Q217 309 271 309Q329 309 368 270Q405 233 405 174Z" />
<glyph unicode="7" glyph-name="seven" horiz-adv-x="525" d="M502 695H25V622H390L111 4L177 -25L502 695Z" />
<glyph unicode="8" glyph-name="eight" horiz-adv-x="525" d="M470 187Q470 247 439 295Q413 333 378 355Q398 372 412 389T437 426Q456 464 456 510Q456 587 400 646Q344 704 267 704Q185 704 126 647Q70 589 70 507Q70 463 91 421Q109 387 150 355Q110 330 86
293Q70 270 63 243T56 185Q56 99 116 38Q178 -22 262 -22Q350 -22 410 38T470 187ZM380 507Q380 457 345 424Q312 389 263 389Q215 389 180 424Q146 457 146 504Q146 561 178 595Q211 630 263 630Q314 630 347 595Q380 562 380 507ZM394 185Q394 128 356 90Q320
51 264 51Q208 51 169 90Q132 127 132 184Q132 242 169 279Q207 317 264 317Q318 317 356 278Q394 240 394 185Z" />
<glyph unicode="9" glyph-name="nine" horiz-adv-x="525" d="M468 444Q468 571 405 638Q341 704 244 704Q156 704 98 646Q40 589 40 500Q40 415 99 359Q157 302 244 302Q270 302 294 306T342 324Q351 326 360 331T375 342Q357 271 317 217Q279 166 232 121T119
31L162 -26Q250 37 308 95T401 213Q468 326 468 444ZM390 450V434Q373 417 339 398Q298 375 246 375Q192 375 154 413Q116 449 116 500Q116 557 154 593Q190 631 246 631Q313 631 351 588Q370 567 380 533T390 450Z" />
<glyph unicode=":" glyph-name="colon" horiz-adv-x="186" d="M137 340V463H48V339L137 340ZM137 -13V111H48V-13H137Z" />
<glyph unicode=";" glyph-name="semicolon" horiz-adv-x="186" d="M139 340V463H50V339L139 340ZM140 17V110H50V-13H71Q69 -36 65 -49Q64 -52 60 -56T53 -63Q51 -66 48 -69T40 -78V-142Q61 -127 69 -121T84 -109Q95 -99 105 -89T121 -64Q140 -26 140 17Z" />
<glyph unicode="&lt;" glyph-name="less" horiz-adv-x="693" d="M621 91V167L177 351L621 535V611L72 380V322L621 91Z" />
<glyph unicode="=" glyph-name="equal" horiz-adv-x="693" d="M621 438V507H72V437L621 438ZM621 195V265H72V195H621Z" />
<glyph unicode="&gt;" glyph-name="greater" horiz-adv-x="693" d="M621 322V380L72 611V535L515 351L72 167V91L621 322Z" />
<glyph unicode="?" glyph-name="question" horiz-adv-x="295" d="M265 550Q265 580 257 607T232 657Q197 705 127 705Q103 705 81 697Q76 695 61 688T36 675T23 669L50 602Q55 605 65 611T87 622T109 632T126 637Q153 637 171 613Q189 590 189 555Q189 513 171
474Q161 454 148 431T117 380Q104 359 96 342T82 311Q73 284 73 252Q73 226 88 198Q94 186 102 175T124 147L158 177Q148 195 144 205T138 220Q137 225 137 230T136 240Q136 260 143 280Q149 300 171 332Q196 367 214 396T243 446Q265 490 265 550ZM174 -13V110H84V-13H174Z"
/>
<glyph unicode="@" glyph-name="at" horiz-adv-x="840" d="M740 97H682Q665 72 641 52T581 14Q511 -21 424 -21Q319 -21 232 60Q147 139 147 265Q147 387 229 470Q311 554 425 554Q536 554 611 474Q640 442 656 405T672 324Q672 236 623 174Q600 145 579 130T535
112Q534 117 533 121T532 132Q531 134 531 139T532 148Q532 150 533 158T536 171L596 454H530L521 409Q503 435 481 448Q445 469 414 469Q320 469 264 392Q209 314 209 231Q209 150 252 104Q295 59 351 59Q387 59 421 79Q435 87 446 97T469 118Q476 86 485 76Q493
68 501 63T519 57Q557 57 591 78T657 137Q721 214 721 322Q721 436 637 520T423 604Q286 604 191 503T96 269Q96 132 189 32Q282 -71 430 -71Q533 -71 619 -20Q661 3 690 30T740 97ZM498 312Q498 264 457 187Q419 114 360 114Q331 114 303 143Q276 170 276 228Q276
262 285 294T315 357Q354 417 410 417Q449 417 473 387Q498 356 498 312Z" />
<glyph unicode="A" glyph-name="A" horiz-adv-x="700" d="M698 -13L373 700H328L1 -13H84L192 224H509L617 -13H698ZM477 293H223L350 571L477 293Z" />
<glyph unicode="B" glyph-name="B" horiz-adv-x="558" d="M520 185Q520 261 471 309Q435 343 379 359Q421 386 441 424Q461 461 461 504Q461 594 397 646Q335 695 227 695H67V-13H278Q389 -13 454 39Q520 91 520 185ZM379 499Q379 440 337 409Q294 378 212 378H145V626H209Q295
626 338 594Q379 564 379 499ZM439 180Q439 121 395 89Q348 56 268 56H145V310H251Q299 310 334 302T393 277Q439 246 439 180Z" />
<glyph unicode="C" glyph-name="C" horiz-adv-x="711" d="M678 49V132Q642 112 613 99T553 74Q494 52 422 52Q293 52 210 133Q129 212 129 341Q129 464 212 547Q254 588 305 609T419 630Q484 630 541 611Q572 601 602 589T670 553V642Q639 658 610 669T547 688Q484
704 428 704Q264 704 156 600Q47 497 47 341Q47 182 156 80Q264 -22 431 -22Q489 -22 557 -2Q589 8 619 20T678 49Z" />
<glyph unicode="D" glyph-name="D" horiz-adv-x="777" d="M713 340Q713 504 610 600Q507 695 333 695H78V-13H341Q515 -13 614 86T713 340ZM631 340Q631 211 548 134Q464 56 326 56H156V626H329Q467 626 549 547T631 340Z" />
<glyph unicode="E" glyph-name="E" horiz-adv-x="515" d="M472 -13V57H145V309H456V378H145V626H465V695H67V-13H472Z" />
<glyph unicode="F" glyph-name="F" horiz-adv-x="460" d="M437 626V695H59V-13H137V323H406V392H137V626H437Z" />
<glyph unicode="G" glyph-name="G" horiz-adv-x="755" d="M694 41V323H473V253H617V90Q606 83 589 77T550 65Q505 52 448 52Q377 52 322 72T223 132Q139 210 139 342Q139 467 222 548Q307 630 431 630Q461 630 491 625T551 611T611 589T682 551V640Q662 652 637
661T578 682T508 698T431 704Q273 704 164 600Q57 496 57 343Q57 187 167 82Q277 -22 441 -22Q476 -22 510 -17T576 -4T636 15T694 41Z" />
<glyph unicode="H" glyph-name="H" horiz-adv-x="755" d="M670 -13V695H592V379H163V695H85V-13H163V311H592V-13H670Z" />
<glyph unicode="I" glyph-name="I" horiz-adv-x="218" d="M148 -13V695H71V-13H148Z" />
<glyph unicode="J" glyph-name="J" horiz-adv-x="218" d="M149 -7V695H71V4Q71 -32 65 -59T48 -105Q28 -138 -12 -138L-59 -133L-51 -209L-7 -211Q28 -213 56 -199T106 -160Q129 -134 139 -96T149 -7Z" />
<glyph unicode="K" glyph-name="K" horiz-adv-x="566" d="M579 -13L209 342L546 695H445L136 373V695H58V-13H136V313L475 -13H579Z" />
<glyph unicode="L" glyph-name="L" horiz-adv-x="492" d="M473 -13V57H136V695H58V-13H473Z" />
<glyph unicode="M" glyph-name="M" horiz-adv-x="820" d="M735 -13V695H663L410 385L156 695H85V-13H163V572L410 266L657 572V-13H735Z" />
<glyph unicode="N" glyph-name="N" horiz-adv-x="810" d="M726 -13V695H648V118Q588 189 529 257T410 391Q344 464 280 539T148 695H85V-13H163V563L662 -13H726Z" />
<glyph unicode="O" glyph-name="O" horiz-adv-x="864" d="M806 341Q806 496 698 600Q591 704 432 704Q274 704 166 599Q59 496 59 341Q59 264 86 199T167 82Q274 -22 432 -22Q590 -22 698 83Q806 186 806 341ZM724 341Q724 223 638 137Q554 52 432 52Q310 52 225
137Q141 221 141 341Q141 460 226 545T432 630Q554 630 638 545Q724 459 724 341Z" />
<glyph unicode="P" glyph-name="P" horiz-adv-x="536" d="M499 500Q499 595 438 646Q377 695 270 695H64V-13H142V307H265Q374 307 436 356Q499 407 499 500ZM418 501Q418 439 378 408Q337 375 261 375H142V626H267Q338 626 379 591Q418 559 418 501Z" />
<glyph unicode="Q" glyph-name="Q" horiz-adv-x="864" d="M806 341Q806 495 698 600Q591 704 432 704Q274 704 166 599Q59 496 59 341Q59 186 166 82Q253 -4 389 -19Q469 -90 563 -122Q612 -139 649 -147T718 -156L712 -78Q708 -77 692 -76T655 -71T613 -63T575
-51Q555 -43 538 -34T503 -14Q617 4 698 82Q752 134 779 199T806 341ZM724 341Q724 223 638 137Q554 52 432 52Q310 52 225 137Q141 221 141 341Q141 460 226 545T432 630Q554 630 638 545Q724 459 724 341Z" />
<glyph unicode="R" glyph-name="R" horiz-adv-x="602" d="M618 -13L477 203Q463 224 449 245T419 288Q407 305 396 317T374 337Q415 353 450 389Q492 434 492 504Q492 597 427 647Q395 672 351 683T251 695H66V-13H144V315H236Q269 315 292 305T332 278Q350 258
367 234T402 180L526 -13H618ZM410 505Q410 445 368 415Q325 383 245 383H144V626H250Q325 626 369 593Q410 564 410 505Z" />
<glyph unicode="S" glyph-name="S" horiz-adv-x="492" d="M450 173Q450 257 409 302Q389 325 352 345T263 385Q187 413 155 440Q126 466 126 515Q126 561 164 596Q183 613 205 621T257 630Q303 630 341 612Q361 602 379 593T424 568L422 655Q402 669 358 686Q311
704 251 704Q166 704 105 647Q44 591 44 513Q44 434 87 391Q107 371 139 353T214 320Q294 292 334 260Q369 231 369 176Q369 123 331 88Q292 52 236 52Q201 52 162 69Q142 78 118 93T53 138V45Q68 33 87 23T132 2Q183 -22 245 -22Q328 -22 389 36Q450 93 450 173Z"
/>
<glyph unicode="T" glyph-name="T" horiz-adv-x="602" d="M596 626V695H6V625H262V-13H340V626H596Z" />
<glyph unicode="U" glyph-name="U" horiz-adv-x="733" d="M665 296V695H587V300Q587 242 572 198T527 119Q468 52 368 52Q266 52 206 117Q147 182 147 295V695H69V291Q69 152 152 65Q236 -22 367 -22Q500 -22 582 69Q665 158 665 296Z" />
<glyph unicode="V" glyph-name="V" horiz-adv-x="624" d="M626 695H544L312 137L79 695H-1L296 -20H328L626 695Z" />
<glyph unicode="W" glyph-name="W" horiz-adv-x="1083" d="M1075 695H996L778 150L558 695H526L305 150L88 695H7L291 -20H322L542 535L763 -20H793L1075 695Z" />
<glyph unicode="X" glyph-name="X" horiz-adv-x="742" d="M744 -13L422 349L726 695H624L371 407L117 695H15L319 349L-1 -13H101L371 293L641 -13H744Z" />
<glyph unicode="Y" glyph-name="Y" horiz-adv-x="639" d="M639 695H543L322 431L99 695H3L282 361V-13H360V361L639 695Z" />
<glyph unicode="Z" glyph-name="Z" horiz-adv-x="667" d="M644 -13V57H143L642 660L633 695H40V625H514L15 18L25 -13H644Z" />
<glyph unicode="[" glyph-name="bracketleft" horiz-adv-x="317" d="M300 -233V-160H122V623H300V695H49V-233H300Z" />
<glyph unicode="\" glyph-name="backslash" horiz-adv-x="295" d="M300 -22L73 704H1L227 -22H300Z" />
<glyph unicode="]" glyph-name="bracketright" horiz-adv-x="317" d="M269 -233V695H18V622H196V-161H18V-233H269Z" />
<glyph unicode="^" glyph-name="asciicircum" horiz-adv-x="693" d="M584 429L355 701H337L110 429L160 384L346 608L534 384L584 429Z" />
<glyph unicode="_" glyph-name="underscore" horiz-adv-x="525" d="M532 -279V-204H-6V-279H532Z" />
<glyph unicode="`" glyph-name="grave" horiz-adv-x="350" d="M295 509L175 690H57L235 508L295 509Z" />
<glyph unicode="a" glyph-name="a" horiz-adv-x="536" d="M478 -15V462H406V433Q377 449 344 460Q313 471 283 471Q179 471 110 397Q44 325 44 212Q44 110 109 44Q173 -22 274 -22Q315 -22 354 -11Q367 -7 380 -1T405 11V-15H478ZM406 87Q395 81 383 73T357 59Q327
47 282 47Q244 47 216 58T164 93Q120 137 120 213Q120 294 170 346Q218 399 294 399Q332 399 365 385Q379 379 389 372T406 359V87Z" />
<glyph unicode="b" glyph-name="b" horiz-adv-x="536" d="M491 236Q491 288 477 331T432 406Q374 471 276 471Q253 471 232 466T188 452Q173 445 159 435T130 411V695H56L58 17Q80 6 99 0T140 -12Q179 -22 223 -22Q347 -22 419 50Q491 124 491 236ZM416 234Q416
155 362 103Q309 50 230 50Q191 50 161 58Q137 64 130 68V328Q150 351 186 378Q225 406 275 406Q336 406 375 358Q416 309 416 234Z" />
<glyph unicode="c" glyph-name="c" horiz-adv-x="438" d="M407 5V83Q386 74 372 69T342 59Q312 50 276 50Q237 50 208 62T157 97Q113 144 113 224Q113 301 157 351Q199 399 270 399Q305 399 333 389Q347 384 361 379T399 363V445Q379 452 364 456T334 464Q306
471 269 471Q164 471 99 397Q37 326 37 224Q37 112 100 45Q164 -22 274 -22Q294 -22 313 -20T351 -12Q368 -7 380 -4T407 5Z" />
<glyph unicode="d" glyph-name="d" horiz-adv-x="536" d="M480 -13V695H407V442Q396 448 383 452T355 462Q325 471 293 471Q239 471 194 454T115 402Q46 333 46 224Q46 120 116 49Q185 -22 287 -22Q306 -22 324 -20T360 -11Q371 -7 382 1T407 18V-13H480ZM406
91Q401 87 393 80T372 65Q358 58 340 54T297 50Q222 50 171 101Q122 150 122 224Q122 302 170 350Q216 399 291 399Q331 399 362 385Q376 378 387 373T406 361V91Z" />
<glyph unicode="e" glyph-name="e" horiz-adv-x="503" d="M469 229Q469 288 454 330T410 405Q350 471 257 471Q161 471 99 400Q38 332 38 231Q38 122 106 49Q175 -22 281 -22Q338 -22 387 1Q408 10 425 21T460 45V134Q435 111 417 98T377 73Q336 50 285 50Q247
50 217 63T162 100Q116 146 113 211V229H469ZM381 288H124Q129 305 136 322T153 350Q192 399 258 399Q287 399 308 391T344 367Q358 353 367 332T381 287V288Z" />
<glyph unicode="f" glyph-name="f" horiz-adv-x="252" d="M325 610V679Q318 684 310 687T287 695Q274 699 261 701T231 704Q158 704 109 653Q62 601 62 523V461H-21V397H62V-13H135V398H222V462H135V508Q135 543 141 566T159 603Q182 632 228 632Q254 632 280
624Q291 620 300 618T325 610Z" />
<glyph unicode="g" glyph-name="g" horiz-adv-x="536" d="M479 -92L478 -91V462H406V433Q377 449 344 460Q313 471 283 471Q178 471 110 397Q44 327 44 212Q44 111 108 44Q174 -22 273 -22Q313 -22 354 -11Q367 -7 380 -3T405 6V-102Q405 -125 374 -143T287 -161Q244
-161 217 -139T172 -78L97 -80Q112 -125 130 -153T172 -202T227 -227T287 -232Q341 -232 377 -218T433 -183T464 -142T476 -107T479 -92ZM406 82Q395 76 383 70T357 59Q327 47 282 47Q244 47 216 58T164 93Q120 137 120 213Q120 294 169 346Q219 399 293 399Q314
399 331 396T365 385Q379 379 389 372T406 359V82Z" />
<glyph unicode="h" glyph-name="h" horiz-adv-x="515" d="M453 -13V271Q453 316 441 353T403 417Q352 471 269 471Q223 471 184 449Q158 434 135 402V695H62V-13H135V313Q146 330 159 345T188 373Q219 399 269 399Q323 399 351 362Q365 345 372 318T380 256V-13H453Z" />
<glyph unicode="i" glyph-name="i" horiz-adv-x="197" d="M135 588V695H62V587L135 588ZM135 -13V462H62V-13H135Z" />
<glyph unicode="j" glyph-name="j" horiz-adv-x="197" d="M136 588V695H63V587L136 588ZM136 -32V462H63V-47Q63 -125 42 -150Q21 -177 -16 -177H-37L-16 -243Q17 -243 42 -231T91 -197Q114 -174 125 -133T136 -32Z" />
<glyph unicode="k" glyph-name="k" horiz-adv-x="486" d="M519 -13L220 236L480 462H379L117 236L415 -13H519ZM141 -13V236V695H68V-13H141Z" />
<glyph unicode="l" glyph-name="l" horiz-adv-x="197" d="M135 -13V695H62V-13H135Z" />
<glyph unicode="m" glyph-name="m" horiz-adv-x="810" d="M741 -13V271Q741 357 699 414Q654 471 584 471H572Q509 471 467 432Q453 418 441 404T419 376Q394 425 362 447Q343 458 323 464T283 471H271Q225 471 187 449Q164 436 139 403V462H67V-13H140V312Q163
349 191 374T265 399Q315 399 342 363Q368 326 368 256V-13H441V302Q463 338 493 368Q523 399 561 399Q611 399 640 362Q668 327 668 256V-13H741Z" />
<glyph unicode="n" glyph-name="n" horiz-adv-x="515" d="M453 -13V271Q453 316 441 353T403 417Q352 471 269 471Q222 471 183 449Q157 434 134 402V462H62V-13H135V313Q146 330 159 345T188 373Q219 399 269 399Q323 399 351 362Q365 345 372 318T380 256V-13H453Z" />
<glyph unicode="o" glyph-name="o" horiz-adv-x="569" d="M526 224Q526 328 457 400Q388 471 285 471Q180 471 112 400Q43 328 43 224Q43 122 113 49Q181 -22 285 -22Q388 -22 458 49Q526 122 526 224ZM450 224Q450 152 402 101Q352 50 285 50Q217 50 168 102Q119
151 119 224Q119 298 168 348Q216 399 285 399Q353 399 402 347Q450 297 450 224Z" />
<glyph unicode="p" glyph-name="p" horiz-adv-x="536" d="M509 225Q509 333 441 402T268 471Q254 471 239 469T209 461Q192 456 178 450T152 439V462H78V-243H151V6Q164 0 176 -5T202 -13Q236 -22 278 -22Q373 -22 441 53Q509 126 509 225ZM431 224Q431 148 384
99Q339 50 262 50Q242 50 225 53T192 62Q180 67 170 70T151 79V366Q157 370 166 373T188 382Q202 387 218 393T256 399Q331 399 381 348Q431 300 431 224Z" />
<glyph unicode="q" glyph-name="q" horiz-adv-x="536" d="M478 -243V462H406V433Q377 449 344 460Q313 471 283 471Q179 471 110 397Q44 325 44 212Q44 110 109 44Q173 -22 274 -22Q315 -22 354 -11Q367 -7 380 -3T405 6V-243H478ZM406 82Q395 76 383 70T357 59Q327
47 282 47Q244 47 216 58T164 93Q120 137 120 213Q120 294 170 346Q218 399 294 399Q332 399 365 385Q379 379 389 372T406 359V82Z" />
<glyph unicode="r" glyph-name="r" horiz-adv-x="371" d="M393 405Q378 423 347 445Q330 457 313 464T275 471Q254 471 231 467T185 443Q170 430 154 410T128 374V462H55V-13H128V280Q148 312 186 356Q226 399 261 399Q277 399 296 386Q307 380 319 370T352 341L393 405Z" />
<glyph unicode="s" glyph-name="s" horiz-adv-x="372" d="M342 116Q342 177 300 210Q262 241 201 262Q178 270 161 278T131 296Q109 312 109 338Q109 362 131 383Q142 392 157 397T195 402Q224 402 255 389Q270 382 286 373T328 343V425Q306 444 272 457Q235 471
191 471Q161 471 135 461T86 433Q38 395 38 337Q38 285 72 252Q88 236 110 224T162 200Q234 174 254 155Q271 138 271 117Q271 86 248 69Q223 50 184 50Q151 50 115 63Q97 69 79 77T35 103V25Q48 17 61 10T94 -6Q131 -23 184 -23Q251 -23 296 18Q342 59 342 116Z"
/>
<glyph unicode="t" glyph-name="t" horiz-adv-x="317" d="M322 5V80Q297 69 286 64T264 56Q246 50 230 50Q209 50 198 54T183 63Q178 68 176 82T173 124V398H299V462H173V611H141L100 583V461H-21V397H100V91Q100 66 107 45T132 8Q163 -22 217 -22Q231 -22 243
-20T267 -15T290 -8T322 5Z" />
<glyph unicode="u" glyph-name="u" horiz-adv-x="515" d="M453 -13V462H380V138Q365 109 328 80Q292 50 246 50Q193 50 164 84T135 182V462H62V172Q62 78 112 28T252 -22Q293 -22 332 0Q357 13 380 44V-13H453Z" />
<glyph unicode="v" glyph-name="v" horiz-adv-x="448" d="M457 462H383L229 102L68 462H-8L207 -22H253L457 462Z" />
<glyph unicode="w" glyph-name="w" horiz-adv-x="743" d="M744 462H670L523 116L390 462H350L217 117L73 462H-1L202 -22H241L371 321L500 -22H540L744 462Z" />
<glyph unicode="x" glyph-name="x" horiz-adv-x="539" d="M541 462H444L274 281L103 462H7L224 230L8 -13H103L274 178L444 -13H539L323 230L541 462Z" />
<glyph unicode="y" glyph-name="y" horiz-adv-x="457" d="M460 462H383L237 163L83 462H3L199 86L36 -243H113L460 462Z" />
<glyph unicode="z" glyph-name="z" horiz-adv-x="416" d="M409 431L401 462H24V392H292L6 17L16 -13H408V57H125L409 431Z" />
<glyph unicode="{" glyph-name="braceleft" horiz-adv-x="350" d="M307 -233V-153H278Q252 -153 234 -137Q227 -131 223 -117T219 -76V50Q219 91 212 123T190 180Q167 215 135 231Q168 249 190 283Q219 330 219 412V538Q219 564 223 578T235 600Q251 616 278 616H307V695H281Q243
695 214 683T168 645Q138 599 138 532V387Q138 335 117 306Q108 293 91 285T45 272V190Q74 185 91 177T117 156Q138 127 138 75V-70Q138 -137 169 -183Q186 -209 214 -221T281 -233H307Z" />
<glyph unicode="|" glyph-name="bar" horiz-adv-x="233" d="M153 -295V730H80V-295H153Z" />
<glyph unicode="}" glyph-name="braceright" horiz-adv-x="350" d="M306 190V272Q276 277 259 285T232 306Q212 334 212 387V532Q212 597 181 645Q147 695 68 695H43V615H71Q99 615 115 599Q122 593 126 579T131 538V412Q131 371 138 339T161 282Q182 247 215
231Q182 215 160 179Q145 156 138 124T131 50V-76Q131 -102 127 -116T114 -138Q98 -154 71 -154H43V-233H68Q106 -233 135 -221T182 -183Q196 -160 204 -131T212 -70V75Q212 102 217 122T233 156Q243 169 259 177T306 190Z" />
<glyph unicode="~" glyph-name="asciitilde" horiz-adv-x="693" d="M623 416Q592 395 573 383T536 359Q500 337 472 337Q439 337 355 376Q271 417 220 417Q193 417 170 409T124 387Q104 374 92 366T71 351V264Q98 287 116 299T153 323Q192 345 221 345Q254 345
338 306Q422 265 473 265Q499 265 522 273T568 295Q588 308 600 316T621 331L623 416Z" />
</font>
</defs>
</svg>
